<?xml version="1.0" encoding="UTF-8" standalone="no"?>
<!DOCTYPE svg PUBLIC "-//W3C//DTD SVG 1.1//EN"
 "http://www.w3.org/Graphics/SVG/1.1/DTD/svg11.dtd">
<!-- Generated by graphviz version 15.1.0 (20260618.0150)
 -->
<!-- Title: KiwiLM_Model_B Pages: 1 -->
<svg width="493pt" height="991pt"
 viewBox="0.00 0.00 493.00 991.00" xmlns="http://www.w3.org/2000/svg" xmlns:xlink="http://www.w3.org/1999/xlink">
<g id="graph0" class="graph" transform="scale(1 1) rotate(0) translate(18 972.8)">
<title>KiwiLM_Model_B</title>
<polygon fill="#ffffff" stroke="none" points="-18,18 -18,-972.8 474.92,-972.8 474.92,18 -18,18"/>
<text xml:space="preserve" text-anchor="middle" x="228.46" y="-933.7" font-family="Helvetica,sans-Serif" font-size="18.00">KiwiLM Model B — Gated CNN + RoPE Attention</text>
<g id="clust1" class="cluster">
<title>cluster_pre</title>
<path fill="#ffffff" stroke="#f59e0b" stroke-dasharray="5,2" d="M180.09,-554.8C180.09,-554.8 413.08,-554.8 413.08,-554.8 419.08,-554.8 425.09,-560.8 425.09,-566.8 425.09,-566.8 425.09,-804.25 425.09,-804.25 425.09,-810.25 419.09,-816.25 413.09,-816.25 413.09,-816.25 180.09,-816.25 180.09,-816.25 174.09,-816.25 168.09,-810.25 168.09,-804.25 168.09,-804.25 168.09,-566.8 168.09,-566.8 168.09,-560.8 174.09,-554.8 180.09,-554.8"/>
<text xml:space="preserve" text-anchor="middle" x="296.59" y="-795.15" font-family="Helvetica,sans-Serif" font-size="18.00" fill="#92400e">3 × Causal Gated CNN Blocks</text>
</g>
<g id="clust2" class="cluster">
<title>cluster_post</title>
<path fill="#ffffff" stroke="#f59e0b" stroke-dasharray="5,2" d="M167.09,-211.45C167.09,-211.45 400.08,-211.45 400.08,-211.45 406.08,-211.45 412.09,-217.45 412.09,-223.45 412.09,-223.45 412.09,-460.9 412.09,-460.9 412.09,-466.9 406.09,-472.9 400.09,-472.9 400.09,-472.9 167.09,-472.9 167.09,-472.9 161.09,-472.9 155.09,-466.9 155.09,-460.9 155.09,-460.9 155.09,-223.45 155.09,-223.45 155.09,-217.45 161.09,-211.45 167.09,-211.45"/>
<text xml:space="preserve" text-anchor="middle" x="283.59" y="-451.8" font-family="Helvetica,sans-Serif" font-size="18.00" fill="#92400e">3 × Causal Gated CNN Blocks</text>
</g>
<!-- input -->
<g id="node1" class="node">
<title>input</title>
<path fill="#dbeafe" stroke="#3b82f6" stroke-width="1.2" d="M323.42,-928.05C323.42,-928.05 242.75,-928.05 242.75,-928.05 236.75,-928.05 230.75,-922.05 230.75,-916.05 230.75,-916.05 230.75,-901.65 230.75,-901.65 230.75,-895.65 236.75,-889.65 242.75,-889.65 242.75,-889.65 323.42,-889.65 323.42,-889.65 329.42,-889.65 335.42,-895.65 335.42,-901.65 335.42,-901.65 335.42,-916.05 335.42,-916.05 335.42,-922.05 329.42,-928.05 323.42,-928.05"/>
<text xml:space="preserve" text-anchor="middle" x="283.09" y="-910.4" font-family="Helvetica,sans-Serif" font-size="11.00" fill="#0f172a">Input token IDs</text>
<text xml:space="preserve" text-anchor="middle" x="283.09" y="-898.4" font-family="Helvetica,sans-Serif" font-size="11.00" fill="#0f172a">[B, T] &#160;• &#160;T ≤ 256</text>
</g>
<!-- embedding -->
<g id="node2" class="node">
<title>embedding</title>
<path fill="#dcfce7" stroke="#22c55e" stroke-width="1.2" d="M327.17,-862.65C327.17,-862.65 239,-862.65 239,-862.65 233,-862.65 227,-856.65 227,-850.65 227,-850.65 227,-836.25 227,-836.25 227,-830.25 233,-824.25 239,-824.25 239,-824.25 327.17,-824.25 327.17,-824.25 333.17,-824.25 339.17,-830.25 339.17,-836.25 339.17,-836.25 339.17,-850.65 339.17,-850.65 339.17,-856.65 333.17,-862.65 327.17,-862.65"/>
<text xml:space="preserve" text-anchor="middle" x="283.09" y="-845" font-family="Helvetica,sans-Serif" font-size="11.00" fill="#0f172a">Token Embedding</text>
<text xml:space="preserve" text-anchor="middle" x="283.09" y="-833" font-family="Helvetica,sans-Serif" font-size="11.00" fill="#0f172a">8,192 × 256</text>
</g>
<!-- input&#45;&gt;embedding -->
<g id="edge5" class="edge">
<title>input&#45;&gt;embedding</title>
<path fill="none" stroke="#475569" stroke-width="1.3" d="M283.09,-889.23C283.09,-889.23 283.09,-872.03 283.09,-872.03"/>
<polygon fill="#475569" stroke="#475569" stroke-width="1.3" points="285.54,-872.03 283.09,-865.03 280.64,-872.03 285.54,-872.03"/>
</g>
<!-- pre1 -->
<g id="node3" class="node">
<title>pre1</title>
<path fill="#fef3c7" stroke="#f59e0b" stroke-width="1.2" d="M365.8,-781.5C365.8,-781.5 200.38,-781.5 200.38,-781.5 194.38,-781.5 188.38,-775.5 188.38,-769.5 188.38,-769.5 188.38,-738.6 188.38,-738.6 188.38,-732.6 194.38,-726.6 200.38,-726.6 200.38,-726.6 365.8,-726.6 365.8,-726.6 371.8,-726.6 377.8,-732.6 377.8,-738.6 377.8,-738.6 377.8,-769.5 377.8,-769.5 377.8,-775.5 371.8,-781.5 365.8,-781.5"/>
<text xml:space="preserve" text-anchor="middle" x="283.09" y="-763.85" font-family="Helvetica,sans-Serif" font-size="11.00" fill="#0f172a">Block 1 • dilation 1</text>
<text xml:space="preserve" text-anchor="middle" x="283.09" y="-751.85" font-family="Helvetica,sans-Serif" font-size="11.00" fill="#0f172a">Pre&#45;LN → causal Conv1d → GLU</text>
<text xml:space="preserve" text-anchor="middle" x="283.09" y="-737.6" font-family="Helvetica,sans-Serif" font-size="11.00" fill="#0f172a">Dropout → Residual</text>
</g>
<!-- embedding&#45;&gt;pre1 -->
<g id="edge6" class="edge">
<title>embedding&#45;&gt;pre1</title>
<path fill="none" stroke="#475569" stroke-width="1.3" d="M283.09,-824.05C283.09,-824.05 283.09,-790.86 283.09,-790.86"/>
<polygon fill="#475569" stroke="#475569" stroke-width="1.3" points="285.54,-790.86 283.09,-783.86 280.64,-790.86 285.54,-790.86"/>
</g>
<!-- lm_head -->
<g id="node11" class="node">
<title>lm_head</title>
<path fill="#f3e8ff" stroke="#a855f7" stroke-width="1.2" d="M351.17,-106.05C351.17,-106.05 215,-106.05 215,-106.05 209,-106.05 203,-100.05 203,-94.05 203,-94.05 203,-77.4 203,-77.4 203,-71.4 209,-65.4 215,-65.4 215,-65.4 351.17,-65.4 351.17,-65.4 357.17,-65.4 363.17,-71.4 363.17,-77.4 363.17,-77.4 363.17,-94.05 363.17,-94.05 363.17,-100.05 357.17,-106.05 351.17,-106.05"/>
<text xml:space="preserve" text-anchor="middle" x="283.09" y="-88.4" font-family="Helvetica,sans-Serif" font-size="11.00" fill="#0f172a">Tied Language&#45;Model Head</text>
<text xml:space="preserve" text-anchor="middle" x="283.09" y="-76.4" font-family="Helvetica,sans-Serif" font-size="11.00" fill="#0f172a">Linear 256 → 8,192 + bias</text>
</g>
<!-- embedding&#45;&gt;lm_head -->
<g id="edge12" class="edge">
<title>embedding&#45;&gt;lm_head</title>
<path fill="none" stroke="#9333ea" stroke-width="1.3" stroke-dasharray="5,2" d="M339.52,-843C390.28,-843 456.92,-843 456.92,-843 456.92,-843 456.92,-86 456.92,-86 456.92,-86 372.61,-86 372.61,-86"/>
<polygon fill="#9333ea" stroke="#9333ea" stroke-width="1.3" points="372.61,-83.55 365.61,-86 372.61,-88.45 372.61,-83.55"/>
<text xml:space="preserve" text-anchor="middle" x="425.8" y="-472.49" font-family="Helvetica,sans-Serif" font-size="9.00" fill="#7e22ce">shared weights</text>
</g>
<!-- pre2 -->
<g id="node4" class="node">
<title>pre2</title>
<path fill="#fef3c7" stroke="#f59e0b" stroke-width="1.2" d="M365.8,-699.6C365.8,-699.6 200.38,-699.6 200.38,-699.6 194.38,-699.6 188.38,-693.6 188.38,-687.6 188.38,-687.6 188.38,-656.7 188.38,-656.7 188.38,-650.7 194.38,-644.7 200.38,-644.7 200.38,-644.7 365.8,-644.7 365.8,-644.7 371.8,-644.7 377.8,-650.7 377.8,-656.7 377.8,-656.7 377.8,-687.6 377.8,-687.6 377.8,-693.6 371.8,-699.6 365.8,-699.6"/>
<text xml:space="preserve" text-anchor="middle" x="283.09" y="-681.95" font-family="Helvetica,sans-Serif" font-size="11.00" fill="#0f172a">Block 2 • dilation 2</text>
<text xml:space="preserve" text-anchor="middle" x="283.09" y="-669.95" font-family="Helvetica,sans-Serif" font-size="11.00" fill="#0f172a">Pre&#45;LN → causal Conv1d → GLU</text>
<text xml:space="preserve" text-anchor="middle" x="283.09" y="-655.7" font-family="Helvetica,sans-Serif" font-size="11.00" fill="#0f172a">Dropout → Residual</text>
</g>
<!-- pre1&#45;&gt;pre2 -->
<g id="edge1" class="edge">
<title>pre1&#45;&gt;pre2</title>
<path fill="none" stroke="#475569" stroke-width="1.3" d="M283.09,-726.32C283.09,-726.32 283.09,-709.1 283.09,-709.1"/>
<polygon fill="#475569" stroke="#475569" stroke-width="1.3" points="285.54,-709.1 283.09,-702.1 280.64,-709.1 285.54,-709.1"/>
</g>
<!-- pre3 -->
<g id="node5" class="node">
<title>pre3</title>
<path fill="#fef3c7" stroke="#f59e0b" stroke-width="1.2" d="M365.8,-617.7C365.8,-617.7 200.38,-617.7 200.38,-617.7 194.38,-617.7 188.38,-611.7 188.38,-605.7 188.38,-605.7 188.38,-574.8 188.38,-574.8 188.38,-568.8 194.38,-562.8 200.38,-562.8 200.38,-562.8 365.8,-562.8 365.8,-562.8 371.8,-562.8 377.8,-568.8 377.8,-574.8 377.8,-574.8 377.8,-605.7 377.8,-605.7 377.8,-611.7 371.8,-617.7 365.8,-617.7"/>
<text xml:space="preserve" text-anchor="middle" x="283.09" y="-600.05" font-family="Helvetica,sans-Serif" font-size="11.00" fill="#0f172a">Block 3 • dilation 4</text>
<text xml:space="preserve" text-anchor="middle" x="283.09" y="-588.05" font-family="Helvetica,sans-Serif" font-size="11.00" fill="#0f172a">Pre&#45;LN → causal Conv1d → GLU</text>
<text xml:space="preserve" text-anchor="middle" x="283.09" y="-573.8" font-family="Helvetica,sans-Serif" font-size="11.00" fill="#0f172a">Dropout → Residual</text>
</g>
<!-- pre2&#45;&gt;pre3 -->
<g id="edge2" class="edge">
<title>pre2&#45;&gt;pre3</title>
<path fill="none" stroke="#475569" stroke-width="1.3" d="M283.09,-644.42C283.09,-644.42 283.09,-627.2 283.09,-627.2"/>
<polygon fill="#475569" stroke="#475569" stroke-width="1.3" points="285.54,-627.2 283.09,-620.2 280.64,-627.2 285.54,-627.2"/>
</g>
<!-- attention -->
<g id="node6" class="node">
<title>attention</title>
<path fill="#ede9fe" stroke="#8b5cf6" stroke-width="1.6" d="M426.92,-535.8C426.92,-535.8 139.25,-535.8 139.25,-535.8 133.25,-535.8 127.25,-529.8 127.25,-523.8 127.25,-523.8 127.25,-492.9 127.25,-492.9 127.25,-486.9 133.25,-480.9 139.25,-480.9 139.25,-480.9 426.92,-480.9 426.92,-480.9 432.92,-480.9 438.92,-486.9 438.92,-492.9 438.92,-492.9 438.92,-523.8 438.92,-523.8 438.92,-529.8 432.92,-535.8 426.92,-535.8"/>
<text xml:space="preserve" text-anchor="middle" x="283.09" y="-518.15" font-family="Helvetica,sans-Serif" font-size="11.00" fill="#0f172a">Transformer Attention Block</text>
<text xml:space="preserve" text-anchor="middle" x="283.09" y="-506.15" font-family="Helvetica,sans-Serif" font-size="11.00" fill="#0f172a">Pre&#45;LN → 8&#45;head causal self&#45;attention + RoPE → Residual</text>
<text xml:space="preserve" text-anchor="middle" x="283.09" y="-491.9" font-family="Helvetica,sans-Serif" font-size="11.00" fill="#0f172a">Pre&#45;LN → MLP 256→1024→256 + GELU → Residual</text>
</g>
<!-- pre3&#45;&gt;attention -->
<g id="edge7" class="edge">
<title>pre3&#45;&gt;attention</title>
<path fill="none" stroke="#475569" stroke-width="1.3" d="M283.09,-562.52C283.09,-562.52 283.09,-545.3 283.09,-545.3"/>
<polygon fill="#475569" stroke="#475569" stroke-width="1.3" points="285.54,-545.3 283.09,-538.3 280.64,-545.3 285.54,-545.3"/>
</g>
<!-- post1 -->
<g id="node7" class="node">
<title>post1</title>
<path fill="#fef3c7" stroke="#f59e0b" stroke-width="1.2" d="M365.8,-438.15C365.8,-438.15 200.38,-438.15 200.38,-438.15 194.38,-438.15 188.38,-432.15 188.38,-426.15 188.38,-426.15 188.38,-395.25 188.38,-395.25 188.38,-389.25 194.38,-383.25 200.38,-383.25 200.38,-383.25 365.8,-383.25 365.8,-383.25 371.8,-383.25 377.8,-389.25 377.8,-395.25 377.8,-395.25 377.8,-426.15 377.8,-426.15 377.8,-432.15 371.8,-438.15 365.8,-438.15"/>
<text xml:space="preserve" text-anchor="middle" x="283.09" y="-420.5" font-family="Helvetica,sans-Serif" font-size="11.00" fill="#0f172a">Block 4 • dilation 8</text>
<text xml:space="preserve" text-anchor="middle" x="283.09" y="-408.5" font-family="Helvetica,sans-Serif" font-size="11.00" fill="#0f172a">Pre&#45;LN → causal Conv1d → GLU</text>
<text xml:space="preserve" text-anchor="middle" x="283.09" y="-394.25" font-family="Helvetica,sans-Serif" font-size="11.00" fill="#0f172a">Dropout → Residual</text>
</g>
<!-- attention&#45;&gt;post1 -->
<g id="edge8" class="edge">
<title>attention&#45;&gt;post1</title>
<path fill="none" stroke="#475569" stroke-width="1.3" d="M283.09,-480.11C283.09,-480.11 283.09,-447.51 283.09,-447.51"/>
<polygon fill="#475569" stroke="#475569" stroke-width="1.3" points="285.54,-447.51 283.09,-440.51 280.64,-447.51 285.54,-447.51"/>
</g>
<!-- post2 -->
<g id="node8" class="node">
<title>post2</title>
<path fill="#fef3c7" stroke="#f59e0b" stroke-width="1.2" d="M365.8,-356.25C365.8,-356.25 200.38,-356.25 200.38,-356.25 194.38,-356.25 188.38,-350.25 188.38,-344.25 188.38,-344.25 188.38,-313.35 188.38,-313.35 188.38,-307.35 194.38,-301.35 200.38,-301.35 200.38,-301.35 365.8,-301.35 365.8,-301.35 371.8,-301.35 377.8,-307.35 377.8,-313.35 377.8,-313.35 377.8,-344.25 377.8,-344.25 377.8,-350.25 371.8,-356.25 365.8,-356.25"/>
<text xml:space="preserve" text-anchor="middle" x="283.09" y="-338.6" font-family="Helvetica,sans-Serif" font-size="11.00" fill="#0f172a">Block 5 • dilation 16</text>
<text xml:space="preserve" text-anchor="middle" x="283.09" y="-326.6" font-family="Helvetica,sans-Serif" font-size="11.00" fill="#0f172a">Pre&#45;LN → causal Conv1d → GLU</text>
<text xml:space="preserve" text-anchor="middle" x="283.09" y="-312.35" font-family="Helvetica,sans-Serif" font-size="11.00" fill="#0f172a">Dropout → Residual</text>
</g>
<!-- post1&#45;&gt;post2 -->
<g id="edge3" class="edge">
<title>post1&#45;&gt;post2</title>
<path fill="none" stroke="#475569" stroke-width="1.3" d="M283.09,-382.97C283.09,-382.97 283.09,-365.75 283.09,-365.75"/>
<polygon fill="#475569" stroke="#475569" stroke-width="1.3" points="285.54,-365.75 283.09,-358.75 280.64,-365.75 285.54,-365.75"/>
</g>
<!-- post3 -->
<g id="node9" class="node">
<title>post3</title>
<path fill="#fef3c7" stroke="#f59e0b" stroke-width="1.2" d="M365.8,-274.35C365.8,-274.35 200.38,-274.35 200.38,-274.35 194.38,-274.35 188.38,-268.35 188.38,-262.35 188.38,-262.35 188.38,-231.45 188.38,-231.45 188.38,-225.45 194.38,-219.45 200.38,-219.45 200.38,-219.45 365.8,-219.45 365.8,-219.45 371.8,-219.45 377.8,-225.45 377.8,-231.45 377.8,-231.45 377.8,-262.35 377.8,-262.35 377.8,-268.35 371.8,-274.35 365.8,-274.35"/>
<text xml:space="preserve" text-anchor="middle" x="283.09" y="-256.7" font-family="Helvetica,sans-Serif" font-size="11.00" fill="#0f172a">Block 6 • dilation 32</text>
<text xml:space="preserve" text-anchor="middle" x="283.09" y="-244.7" font-family="Helvetica,sans-Serif" font-size="11.00" fill="#0f172a">Pre&#45;LN → causal Conv1d → GLU</text>
<text xml:space="preserve" text-anchor="middle" x="283.09" y="-230.45" font-family="Helvetica,sans-Serif" font-size="11.00" fill="#0f172a">Dropout → Residual</text>
</g>
<!-- post2&#45;&gt;post3 -->
<g id="edge4" class="edge">
<title>post2&#45;&gt;post3</title>
<path fill="none" stroke="#475569" stroke-width="1.3" d="M283.09,-301.07C283.09,-301.07 283.09,-283.85 283.09,-283.85"/>
<polygon fill="#475569" stroke="#475569" stroke-width="1.3" points="285.54,-283.85 283.09,-276.85 280.64,-283.85 285.54,-283.85"/>
</g>
<!-- final_norm -->
<g id="node10" class="node">
<title>final_norm</title>
<path fill="#e2e8f0" stroke="#64748b" stroke-width="1.2" d="M324.17,-181.95C324.17,-181.95 242,-181.95 242,-181.95 236,-181.95 230,-175.95 230,-169.95 230,-169.95 230,-155.55 230,-155.55 230,-149.55 236,-143.55 242,-143.55 242,-143.55 324.17,-143.55 324.17,-143.55 330.17,-143.55 336.17,-149.55 336.17,-155.55 336.17,-155.55 336.17,-169.95 336.17,-169.95 336.17,-175.95 330.17,-181.95 324.17,-181.95"/>
<text xml:space="preserve" text-anchor="middle" x="283.09" y="-164.3" font-family="Helvetica,sans-Serif" font-size="11.00" fill="#0f172a">Final LayerNorm</text>
<text xml:space="preserve" text-anchor="middle" x="283.09" y="-152.3" font-family="Helvetica,sans-Serif" font-size="11.00" fill="#0f172a">256 channels</text>
</g>
<!-- post3&#45;&gt;final_norm -->
<g id="edge9" class="edge">
<title>post3&#45;&gt;final_norm</title>
<path fill="none" stroke="#475569" stroke-width="1.3" d="M283.09,-218.88C283.09,-218.88 283.09,-191.38 283.09,-191.38"/>
<polygon fill="#475569" stroke="#475569" stroke-width="1.3" points="285.54,-191.38 283.09,-184.38 280.64,-191.38 285.54,-191.38"/>
</g>
<!-- final_norm&#45;&gt;lm_head -->
<g id="edge10" class="edge">
<title>final_norm&#45;&gt;lm_head</title>
<path fill="none" stroke="#475569" stroke-width="1.3" d="M283.09,-143.31C283.09,-143.31 283.09,-115.47 283.09,-115.47"/>
<polygon fill="#475569" stroke="#475569" stroke-width="1.3" points="285.54,-115.47 283.09,-108.47 280.64,-115.47 285.54,-115.47"/>
</g>
<!-- logits -->
<g id="node12" class="node">
<title>logits</title>
<path fill="#ffe4e6" stroke="#f43f5e" stroke-width="1.2" d="M324.17,-38.4C324.17,-38.4 242,-38.4 242,-38.4 236,-38.4 230,-32.4 230,-26.4 230,-26.4 230,-12 230,-12 230,-6 236,0 242,0 242,0 324.17,0 324.17,0 330.17,0 336.17,-6 336.17,-12 336.17,-12 336.17,-26.4 336.17,-26.4 336.17,-32.4 330.17,-38.4 324.17,-38.4"/>
<text xml:space="preserve" text-anchor="middle" x="283.09" y="-20.75" font-family="Helvetica,sans-Serif" font-size="11.00" fill="#0f172a">Next&#45;token logits</text>
<text xml:space="preserve" text-anchor="middle" x="283.09" y="-8.75" font-family="Helvetica,sans-Serif" font-size="11.00" fill="#0f172a">[B, T, 8,192]</text>
</g>
<!-- lm_head&#45;&gt;logits -->
<g id="edge11" class="edge">
<title>lm_head&#45;&gt;logits</title>
<path fill="none" stroke="#475569" stroke-width="1.3" d="M283.09,-65.04C283.09,-65.04 283.09,-47.7 283.09,-47.7"/>
<polygon fill="#475569" stroke="#475569" stroke-width="1.3" points="285.54,-47.7 283.09,-40.7 280.64,-47.7 285.54,-47.7"/>
</g>
<!-- summary -->
<g id="node13" class="node">
<title>summary</title>
<polygon fill="#f1f5f9" stroke="#94a3b8" stroke-width="1.2" points="208.17,-192.45 0,-192.45 0,-133.05 214.17,-133.05 214.17,-186.45 208.17,-192.45"/>
<polyline fill="none" stroke="#94a3b8" stroke-width="1.2" points="208.17,-192.45 208.17,-186.45"/>
<polyline fill="none" stroke="#94a3b8" stroke-width="1.2" points="214.17,-186.45 208.17,-186.45"/>
<text xml:space="preserve" text-anchor="middle" x="107.09" y="-175.75" font-family="Helvetica,sans-Serif" font-size="10.00" fill="#0f172a">Default configuration</text>
<text xml:space="preserve" text-anchor="middle" x="107.09" y="-164.5" font-family="Helvetica,sans-Serif" font-size="10.00" fill="#0f172a">5,261,056 parameters</text>
<text xml:space="preserve" text-anchor="middle" x="107.09" y="-153.25" font-family="Helvetica,sans-Serif" font-size="10.00" fill="#0f172a">Global causal information path via attention</text>
<text xml:space="preserve" text-anchor="middle" x="107.09" y="-142" font-family="Helvetica,sans-Serif" font-size="10.00" fill="#0f172a">Embedding and LM&#45;head weights are tied</text>
</g>
<!-- summary&#45;&gt;final_norm -->
</g>
</svg>
