<?xml version="1.0" encoding="UTF-8" standalone="no"?>
<!DOCTYPE svg PUBLIC "-//W3C//DTD SVG 1.1//EN"
 "http://www.w3.org/Graphics/SVG/1.1/DTD/svg11.dtd">
<!-- Generated by graphviz version 15.1.0 (20260618.0150)
 -->
<!-- Title: KiwiLM_Model_E Pages: 1 -->
<svg width="532pt" height="743pt"
 viewBox="0.00 0.00 532.00 743.00" xmlns="http://www.w3.org/2000/svg" xmlns:xlink="http://www.w3.org/1999/xlink">
<g id="graph0" class="graph" transform="scale(1 1) rotate(0) translate(18 725)">
<title>KiwiLM_Model_E</title>
<polygon fill="#ffffff" stroke="none" points="-18,18 -18,-725 514.42,-725 514.42,18 -18,18"/>
<text xml:space="preserve" text-anchor="middle" x="248.21" y="-685.9" font-family="Helvetica,sans-Serif" font-size="18.00">KiwiLM Model E — Interleaved Attention</text>
<!-- input -->
<g id="node1" class="node">
<title>input</title>
<path fill="#dbeafe" stroke="#3b82f6" stroke-width="1.2" d="M370.05,-680.25C370.05,-680.25 295.38,-680.25 295.38,-680.25 289.38,-680.25 283.38,-674.25 283.38,-668.25 283.38,-668.25 283.38,-653.85 283.38,-653.85 283.38,-647.85 289.38,-641.85 295.38,-641.85 295.38,-641.85 370.05,-641.85 370.05,-641.85 376.05,-641.85 382.05,-647.85 382.05,-653.85 382.05,-653.85 382.05,-668.25 382.05,-668.25 382.05,-674.25 376.05,-680.25 370.05,-680.25"/>
<text xml:space="preserve" text-anchor="middle" x="332.71" y="-662.6" font-family="Helvetica,sans-Serif" font-size="11.00" fill="#0f172a">Input token IDs</text>
<text xml:space="preserve" text-anchor="middle" x="332.71" y="-650.6" font-family="Helvetica,sans-Serif" font-size="11.00" fill="#0f172a">[B, T] • T ≤ 256</text>
</g>
<!-- embedding -->
<g id="node2" class="node">
<title>embedding</title>
<path fill="#dcfce7" stroke="#22c55e" stroke-width="1.2" d="M376.8,-612.85C376.8,-612.85 288.63,-612.85 288.63,-612.85 282.63,-612.85 276.63,-606.85 276.63,-600.85 276.63,-600.85 276.63,-586.45 276.63,-586.45 276.63,-580.45 282.63,-574.45 288.63,-574.45 288.63,-574.45 376.8,-574.45 376.8,-574.45 382.8,-574.45 388.8,-580.45 388.8,-586.45 388.8,-586.45 388.8,-600.85 388.8,-600.85 388.8,-606.85 382.8,-612.85 376.8,-612.85"/>
<text xml:space="preserve" text-anchor="middle" x="332.71" y="-595.2" font-family="Helvetica,sans-Serif" font-size="11.00" fill="#0f172a">Token Embedding</text>
<text xml:space="preserve" text-anchor="middle" x="332.71" y="-583.2" font-family="Helvetica,sans-Serif" font-size="11.00" fill="#0f172a">8,192 × 256</text>
</g>
<!-- input&#45;&gt;embedding -->
<g id="edge1" class="edge">
<title>input&#45;&gt;embedding</title>
<path fill="none" stroke="#475569" stroke-width="1.3" d="M332.71,-641.56C332.71,-641.56 332.71,-622.3 332.71,-622.3"/>
<polygon fill="#475569" stroke="#475569" stroke-width="1.3" points="335.16,-622.3 332.71,-615.3 330.26,-622.3 335.16,-622.3"/>
</g>
<!-- cnn1 -->
<g id="node3" class="node">
<title>cnn1</title>
<path fill="#fef3c7" stroke="#f59e0b" stroke-width="1.2" d="M389.92,-545.45C389.92,-545.45 275.5,-545.45 275.5,-545.45 269.5,-545.45 263.5,-539.45 263.5,-533.45 263.5,-533.45 263.5,-519.05 263.5,-519.05 263.5,-513.05 269.5,-507.05 275.5,-507.05 275.5,-507.05 389.92,-507.05 389.92,-507.05 395.92,-507.05 401.92,-513.05 401.92,-519.05 401.92,-519.05 401.92,-533.45 401.92,-533.45 401.92,-539.45 395.92,-545.45 389.92,-545.45"/>
<text xml:space="preserve" text-anchor="middle" x="332.71" y="-527.8" font-family="Helvetica,sans-Serif" font-size="11.00" fill="#0f172a">2 × Causal Gated CNN</text>
<text xml:space="preserve" text-anchor="middle" x="332.71" y="-515.8" font-family="Helvetica,sans-Serif" font-size="11.00" fill="#0f172a">Dilations 1, 2</text>
</g>
<!-- embedding&#45;&gt;cnn1 -->
<g id="edge2" class="edge">
<title>embedding&#45;&gt;cnn1</title>
<path fill="none" stroke="#475569" stroke-width="1.3" d="M332.71,-574.16C332.71,-574.16 332.71,-554.9 332.71,-554.9"/>
<polygon fill="#475569" stroke="#475569" stroke-width="1.3" points="335.16,-554.9 332.71,-547.9 330.26,-554.9 335.16,-554.9"/>
</g>
<!-- head -->
<g id="node9" class="node">
<title>head</title>
<path fill="#f3e8ff" stroke="#a855f7" stroke-width="1.2" d="M367.8,-108.05C367.8,-108.05 297.63,-108.05 297.63,-108.05 291.63,-108.05 285.63,-102.05 285.63,-96.05 285.63,-96.05 285.63,-79.4 285.63,-79.4 285.63,-73.4 291.63,-67.4 297.63,-67.4 297.63,-67.4 367.8,-67.4 367.8,-67.4 373.8,-67.4 379.8,-73.4 379.8,-79.4 379.8,-79.4 379.8,-96.05 379.8,-96.05 379.8,-102.05 373.8,-108.05 367.8,-108.05"/>
<text xml:space="preserve" text-anchor="middle" x="332.71" y="-90.4" font-family="Helvetica,sans-Serif" font-size="11.00" fill="#0f172a">Tied LM Head</text>
<text xml:space="preserve" text-anchor="middle" x="332.71" y="-78.4" font-family="Helvetica,sans-Serif" font-size="11.00" fill="#0f172a">256 → 8,192</text>
</g>
<!-- embedding&#45;&gt;head -->
<g id="edge10" class="edge">
<title>embedding&#45;&gt;head</title>
<path fill="none" stroke="#9333ea" stroke-width="1.3" stroke-dasharray="5,2" d="M389.05,-594C436.41,-594 496.42,-594 496.42,-594 496.42,-594 496.42,-88 496.42,-88 496.42,-88 389.03,-88 389.03,-88"/>
<polygon fill="#9333ea" stroke="#9333ea" stroke-width="1.3" points="389.03,-85.55 382.03,-88 389.03,-90.45 389.03,-85.55"/>
<text xml:space="preserve" text-anchor="middle" x="455.92" y="-344.19" font-family="Times,serif" font-size="14.00">shared weights</text>
</g>
<!-- attention1 -->
<g id="node4" class="node">
<title>attention1</title>
<path fill="#ede9fe" stroke="#8b5cf6" stroke-width="1.2" d="M466.42,-478.05C466.42,-478.05 199,-478.05 199,-478.05 193,-478.05 187,-472.05 187,-466.05 187,-466.05 187,-435.15 187,-435.15 187,-429.15 193,-423.15 199,-423.15 199,-423.15 466.42,-423.15 466.42,-423.15 472.42,-423.15 478.42,-429.15 478.42,-435.15 478.42,-435.15 478.42,-466.05 478.42,-466.05 478.42,-472.05 472.42,-478.05 466.42,-478.05"/>
<text xml:space="preserve" text-anchor="middle" x="332.71" y="-460.4" font-family="Helvetica,sans-Serif" font-size="11.00" fill="#0f172a">Attention Block 1</text>
<text xml:space="preserve" text-anchor="middle" x="332.71" y="-448.4" font-family="Helvetica,sans-Serif" font-size="11.00" fill="#0f172a">Pre&#45;LN → 8&#45;head causal attention + RoPE → Residual</text>
<text xml:space="preserve" text-anchor="middle" x="332.71" y="-434.15" font-family="Helvetica,sans-Serif" font-size="11.00" fill="#0f172a">Pre&#45;LN → 4× GELU FFN → Residual</text>
</g>
<!-- cnn1&#45;&gt;attention1 -->
<g id="edge3" class="edge">
<title>cnn1&#45;&gt;attention1</title>
<path fill="none" stroke="#475569" stroke-width="1.3" d="M332.71,-506.77C332.71,-506.77 332.71,-487.54 332.71,-487.54"/>
<polygon fill="#475569" stroke="#475569" stroke-width="1.3" points="335.16,-487.54 332.71,-480.54 330.26,-487.54 335.16,-487.54"/>
</g>
<!-- cnn2 -->
<g id="node5" class="node">
<title>cnn2</title>
<path fill="#fef3c7" stroke="#f59e0b" stroke-width="1.2" d="M389.92,-394.15C389.92,-394.15 275.5,-394.15 275.5,-394.15 269.5,-394.15 263.5,-388.15 263.5,-382.15 263.5,-382.15 263.5,-367.75 263.5,-367.75 263.5,-361.75 269.5,-355.75 275.5,-355.75 275.5,-355.75 389.92,-355.75 389.92,-355.75 395.92,-355.75 401.92,-361.75 401.92,-367.75 401.92,-367.75 401.92,-382.15 401.92,-382.15 401.92,-388.15 395.92,-394.15 389.92,-394.15"/>
<text xml:space="preserve" text-anchor="middle" x="332.71" y="-376.5" font-family="Helvetica,sans-Serif" font-size="11.00" fill="#0f172a">2 × Causal Gated CNN</text>
<text xml:space="preserve" text-anchor="middle" x="332.71" y="-364.5" font-family="Helvetica,sans-Serif" font-size="11.00" fill="#0f172a">Dilations 4, 8</text>
</g>
<!-- attention1&#45;&gt;cnn2 -->
<g id="edge4" class="edge">
<title>attention1&#45;&gt;cnn2</title>
<path fill="none" stroke="#475569" stroke-width="1.3" d="M332.71,-422.86C332.71,-422.86 332.71,-403.37 332.71,-403.37"/>
<polygon fill="#475569" stroke="#475569" stroke-width="1.3" points="335.16,-403.37 332.71,-396.37 330.26,-403.37 335.16,-403.37"/>
</g>
<!-- attention2 -->
<g id="node6" class="node">
<title>attention2</title>
<path fill="#ddd6fe" stroke="#7c3aed" stroke-width="1.6" d="M466.42,-326.75C466.42,-326.75 199,-326.75 199,-326.75 193,-326.75 187,-320.75 187,-314.75 187,-314.75 187,-283.85 187,-283.85 187,-277.85 193,-271.85 199,-271.85 199,-271.85 466.42,-271.85 466.42,-271.85 472.42,-271.85 478.42,-277.85 478.42,-283.85 478.42,-283.85 478.42,-314.75 478.42,-314.75 478.42,-320.75 472.42,-326.75 466.42,-326.75"/>
<text xml:space="preserve" text-anchor="middle" x="332.71" y="-309.1" font-family="Helvetica,sans-Serif" font-size="11.00" fill="#0f172a">Attention Block 2</text>
<text xml:space="preserve" text-anchor="middle" x="332.71" y="-297.1" font-family="Helvetica,sans-Serif" font-size="11.00" fill="#0f172a">Pre&#45;LN → 8&#45;head causal attention + RoPE → Residual</text>
<text xml:space="preserve" text-anchor="middle" x="332.71" y="-282.85" font-family="Helvetica,sans-Serif" font-size="11.00" fill="#0f172a">Pre&#45;LN → 4× GELU FFN → Residual</text>
</g>
<!-- cnn2&#45;&gt;attention2 -->
<g id="edge5" class="edge">
<title>cnn2&#45;&gt;attention2</title>
<path fill="none" stroke="#475569" stroke-width="1.3" d="M332.71,-355.47C332.71,-355.47 332.71,-336.24 332.71,-336.24"/>
<polygon fill="#475569" stroke="#475569" stroke-width="1.3" points="335.16,-336.24 332.71,-329.24 330.26,-336.24 335.16,-336.24"/>
</g>
<!-- cnn3 -->
<g id="node7" class="node">
<title>cnn3</title>
<path fill="#fef3c7" stroke="#f59e0b" stroke-width="1.2" d="M389.92,-242.85C389.92,-242.85 275.5,-242.85 275.5,-242.85 269.5,-242.85 263.5,-236.85 263.5,-230.85 263.5,-230.85 263.5,-216.45 263.5,-216.45 263.5,-210.45 269.5,-204.45 275.5,-204.45 275.5,-204.45 389.92,-204.45 389.92,-204.45 395.92,-204.45 401.92,-210.45 401.92,-216.45 401.92,-216.45 401.92,-230.85 401.92,-230.85 401.92,-236.85 395.92,-242.85 389.92,-242.85"/>
<text xml:space="preserve" text-anchor="middle" x="332.71" y="-225.2" font-family="Helvetica,sans-Serif" font-size="11.00" fill="#0f172a">2 × Causal Gated CNN</text>
<text xml:space="preserve" text-anchor="middle" x="332.71" y="-213.2" font-family="Helvetica,sans-Serif" font-size="11.00" fill="#0f172a">Dilations 16, 32</text>
</g>
<!-- attention2&#45;&gt;cnn3 -->
<g id="edge6" class="edge">
<title>attention2&#45;&gt;cnn3</title>
<path fill="none" stroke="#475569" stroke-width="1.3" d="M332.71,-271.13C332.71,-271.13 332.71,-252.31 332.71,-252.31"/>
<polygon fill="#475569" stroke="#475569" stroke-width="1.3" points="335.16,-252.31 332.71,-245.31 330.26,-252.31 335.16,-252.31"/>
</g>
<!-- norm -->
<g id="node8" class="node">
<title>norm</title>
<path fill="#e2e8f0" stroke="#64748b" stroke-width="1.2" d="M373.8,-174.25C373.8,-174.25 291.63,-174.25 291.63,-174.25 285.63,-174.25 279.63,-168.25 279.63,-162.25 279.63,-162.25 279.63,-150.25 279.63,-150.25 279.63,-144.25 285.63,-138.25 291.63,-138.25 291.63,-138.25 373.8,-138.25 373.8,-138.25 379.8,-138.25 385.8,-144.25 385.8,-150.25 385.8,-150.25 385.8,-162.25 385.8,-162.25 385.8,-168.25 379.8,-174.25 373.8,-174.25"/>
<text xml:space="preserve" text-anchor="middle" x="332.71" y="-151.8" font-family="Helvetica,sans-Serif" font-size="11.00" fill="#0f172a">Final LayerNorm</text>
</g>
<!-- cnn3&#45;&gt;norm -->
<g id="edge7" class="edge">
<title>cnn3&#45;&gt;norm</title>
<path fill="none" stroke="#475569" stroke-width="1.3" d="M332.71,-204.16C332.71,-204.16 332.71,-183.51 332.71,-183.51"/>
<polygon fill="#475569" stroke="#475569" stroke-width="1.3" points="335.16,-183.51 332.71,-176.51 330.26,-183.51 335.16,-183.51"/>
</g>
<!-- norm&#45;&gt;head -->
<g id="edge8" class="edge">
<title>norm&#45;&gt;head</title>
<path fill="none" stroke="#475569" stroke-width="1.3" d="M332.71,-137.89C332.71,-137.89 332.71,-117.53 332.71,-117.53"/>
<polygon fill="#475569" stroke="#475569" stroke-width="1.3" points="335.16,-117.53 332.71,-110.53 330.26,-117.53 335.16,-117.53"/>
</g>
<!-- logits -->
<g id="node10" class="node">
<title>logits</title>
<path fill="#ffe4e6" stroke="#f43f5e" stroke-width="1.2" d="M373.8,-38.4C373.8,-38.4 291.63,-38.4 291.63,-38.4 285.63,-38.4 279.63,-32.4 279.63,-26.4 279.63,-26.4 279.63,-12 279.63,-12 279.63,-6 285.63,0 291.63,0 291.63,0 373.8,0 373.8,0 379.8,0 385.8,-6 385.8,-12 385.8,-12 385.8,-26.4 385.8,-26.4 385.8,-32.4 379.8,-38.4 373.8,-38.4"/>
<text xml:space="preserve" text-anchor="middle" x="332.71" y="-20.75" font-family="Helvetica,sans-Serif" font-size="11.00" fill="#0f172a">Next&#45;token logits</text>
<text xml:space="preserve" text-anchor="middle" x="332.71" y="-8.75" font-family="Helvetica,sans-Serif" font-size="11.00" fill="#0f172a">[B, T, 8,192]</text>
</g>
<!-- head&#45;&gt;logits -->
<g id="edge9" class="edge">
<title>head&#45;&gt;logits</title>
<path fill="none" stroke="#475569" stroke-width="1.3" d="M332.71,-67.17C332.71,-67.17 332.71,-47.77 332.71,-47.77"/>
<polygon fill="#475569" stroke="#475569" stroke-width="1.3" points="335.16,-47.77 332.71,-40.77 330.26,-47.77 335.16,-47.77"/>
</g>
<!-- summary -->
<g id="node11" class="node">
<title>summary</title>
<polygon fill="#f1f5f9" stroke="#94a3b8" stroke-width="1.2" points="255.42,-175.45 0,-175.45 0,-137.05 261.42,-137.05 261.42,-169.45 255.42,-175.45"/>
<polyline fill="none" stroke="#94a3b8" stroke-width="1.2" points="255.42,-175.45 255.42,-169.45"/>
<polyline fill="none" stroke="#94a3b8" stroke-width="1.2" points="261.42,-169.45 255.42,-169.45"/>
<text xml:space="preserve" text-anchor="middle" x="130.71" y="-157.8" font-family="Helvetica,sans-Serif" font-size="11.00" fill="#0f172a">6,050,816 parameters</text>
<text xml:space="preserve" text-anchor="middle" x="130.71" y="-145.8" font-family="Helvetica,sans-Serif" font-size="11.00" fill="#0f172a">Global routing interleaved through the CNN stack</text>
</g>
<!-- summary&#45;&gt;norm -->
</g>
</svg>
