<?xml version="1.0" encoding="UTF-8" standalone="no"?>
<!DOCTYPE svg PUBLIC "-//W3C//DTD SVG 1.1//EN"
 "http://www.w3.org/Graphics/SVG/1.1/DTD/svg11.dtd">
<!-- Generated by graphviz version 15.1.0 (20260618.0150)
 -->
<!-- Title: KiwiLM_Model_D Pages: 1 -->
<svg width="463pt" height="688pt"
 viewBox="0.00 0.00 463.00 688.00" xmlns="http://www.w3.org/2000/svg" xmlns:xlink="http://www.w3.org/1999/xlink">
<g id="graph0" class="graph" transform="scale(1 1) rotate(0) translate(18 669.6)">
<title>KiwiLM_Model_D</title>
<polygon fill="#ffffff" stroke="none" points="-18,18 -18,-669.6 445.17,-669.6 445.17,18 -18,18"/>
<text xml:space="preserve" text-anchor="middle" x="213.59" y="-630.5" font-family="Helvetica,sans-Serif" font-size="18.00">KiwiLM Model D — Attention + Mamba</text>
<!-- input -->
<g id="node1" class="node">
<title>input</title>
<path fill="#dbeafe" stroke="#3b82f6" stroke-width="1.2" d="M284.3,-624.85C284.3,-624.85 209.63,-624.85 209.63,-624.85 203.63,-624.85 197.63,-618.85 197.63,-612.85 197.63,-612.85 197.63,-598.45 197.63,-598.45 197.63,-592.45 203.63,-586.45 209.63,-586.45 209.63,-586.45 284.3,-586.45 284.3,-586.45 290.3,-586.45 296.3,-592.45 296.3,-598.45 296.3,-598.45 296.3,-612.85 296.3,-612.85 296.3,-618.85 290.3,-624.85 284.3,-624.85"/>
<text xml:space="preserve" text-anchor="middle" x="246.96" y="-607.2" font-family="Helvetica,sans-Serif" font-size="11.00" fill="#0f172a">Input token IDs</text>
<text xml:space="preserve" text-anchor="middle" x="246.96" y="-595.2" font-family="Helvetica,sans-Serif" font-size="11.00" fill="#0f172a">[B, T] • T ≤ 256</text>
</g>
<!-- embedding -->
<g id="node2" class="node">
<title>embedding</title>
<path fill="#dcfce7" stroke="#22c55e" stroke-width="1.2" d="M291.05,-557.45C291.05,-557.45 202.88,-557.45 202.88,-557.45 196.88,-557.45 190.88,-551.45 190.88,-545.45 190.88,-545.45 190.88,-531.05 190.88,-531.05 190.88,-525.05 196.88,-519.05 202.88,-519.05 202.88,-519.05 291.05,-519.05 291.05,-519.05 297.05,-519.05 303.05,-525.05 303.05,-531.05 303.05,-531.05 303.05,-545.45 303.05,-545.45 303.05,-551.45 297.05,-557.45 291.05,-557.45"/>
<text xml:space="preserve" text-anchor="middle" x="246.96" y="-539.8" font-family="Helvetica,sans-Serif" font-size="11.00" fill="#0f172a">Token Embedding</text>
<text xml:space="preserve" text-anchor="middle" x="246.96" y="-527.8" font-family="Helvetica,sans-Serif" font-size="11.00" fill="#0f172a">8,192 × 256</text>
</g>
<!-- input&#45;&gt;embedding -->
<g id="edge1" class="edge">
<title>input&#45;&gt;embedding</title>
<path fill="none" stroke="#475569" stroke-width="1.3" d="M246.96,-586.16C246.96,-586.16 246.96,-566.9 246.96,-566.9"/>
<polygon fill="#475569" stroke="#475569" stroke-width="1.3" points="249.41,-566.9 246.96,-559.9 244.51,-566.9 249.41,-566.9"/>
</g>
<!-- pre -->
<g id="node3" class="node">
<title>pre</title>
<path fill="#fef3c7" stroke="#f59e0b" stroke-width="1.2" d="M304.17,-490.05C304.17,-490.05 189.75,-490.05 189.75,-490.05 183.75,-490.05 177.75,-484.05 177.75,-478.05 177.75,-478.05 177.75,-463.65 177.75,-463.65 177.75,-457.65 183.75,-451.65 189.75,-451.65 189.75,-451.65 304.17,-451.65 304.17,-451.65 310.17,-451.65 316.17,-457.65 316.17,-463.65 316.17,-463.65 316.17,-478.05 316.17,-478.05 316.17,-484.05 310.17,-490.05 304.17,-490.05"/>
<text xml:space="preserve" text-anchor="middle" x="246.96" y="-472.4" font-family="Helvetica,sans-Serif" font-size="11.00" fill="#0f172a">3 × Causal Gated CNN</text>
<text xml:space="preserve" text-anchor="middle" x="246.96" y="-460.4" font-family="Helvetica,sans-Serif" font-size="11.00" fill="#0f172a">Dilations 1, 2, 4</text>
</g>
<!-- embedding&#45;&gt;pre -->
<g id="edge2" class="edge">
<title>embedding&#45;&gt;pre</title>
<path fill="none" stroke="#475569" stroke-width="1.3" d="M246.96,-518.76C246.96,-518.76 246.96,-499.5 246.96,-499.5"/>
<polygon fill="#475569" stroke="#475569" stroke-width="1.3" points="249.41,-499.5 246.96,-492.5 244.51,-499.5 249.41,-499.5"/>
</g>
<!-- head -->
<g id="node8" class="node">
<title>head</title>
<path fill="#f3e8ff" stroke="#a855f7" stroke-width="1.2" d="M282.05,-108.05C282.05,-108.05 211.88,-108.05 211.88,-108.05 205.88,-108.05 199.88,-102.05 199.88,-96.05 199.88,-96.05 199.88,-79.4 199.88,-79.4 199.88,-73.4 205.88,-67.4 211.88,-67.4 211.88,-67.4 282.05,-67.4 282.05,-67.4 288.05,-67.4 294.05,-73.4 294.05,-79.4 294.05,-79.4 294.05,-96.05 294.05,-96.05 294.05,-102.05 288.05,-108.05 282.05,-108.05"/>
<text xml:space="preserve" text-anchor="middle" x="246.96" y="-90.4" font-family="Helvetica,sans-Serif" font-size="11.00" fill="#0f172a">Tied LM Head</text>
<text xml:space="preserve" text-anchor="middle" x="246.96" y="-78.4" font-family="Helvetica,sans-Serif" font-size="11.00" fill="#0f172a">256 → 8,192</text>
</g>
<!-- embedding&#45;&gt;head -->
<g id="edge9" class="edge">
<title>embedding&#45;&gt;head</title>
<path fill="none" stroke="#9333ea" stroke-width="1.3" stroke-dasharray="5,2" d="M303.49,-538C356.33,-538 427.17,-538 427.17,-538 427.17,-538 427.17,-88 427.17,-88 427.17,-88 303.28,-88 303.28,-88"/>
<polygon fill="#9333ea" stroke="#9333ea" stroke-width="1.3" points="303.28,-85.55 296.28,-88 303.28,-90.45 303.28,-85.55"/>
<text xml:space="preserve" text-anchor="middle" x="386.67" y="-316.1" font-family="Times,serif" font-size="14.00">shared weights</text>
</g>
<!-- attention -->
<g id="node4" class="node">
<title>attention</title>
<path fill="#ede9fe" stroke="#8b5cf6" stroke-width="1.2" d="M380.67,-422.65C380.67,-422.65 113.25,-422.65 113.25,-422.65 107.25,-422.65 101.25,-416.65 101.25,-410.65 101.25,-410.65 101.25,-379.75 101.25,-379.75 101.25,-373.75 107.25,-367.75 113.25,-367.75 113.25,-367.75 380.67,-367.75 380.67,-367.75 386.67,-367.75 392.67,-373.75 392.67,-379.75 392.67,-379.75 392.67,-410.65 392.67,-410.65 392.67,-416.65 386.67,-422.65 380.67,-422.65"/>
<text xml:space="preserve" text-anchor="middle" x="246.96" y="-405" font-family="Helvetica,sans-Serif" font-size="11.00" fill="#0f172a">Attention Block</text>
<text xml:space="preserve" text-anchor="middle" x="246.96" y="-393" font-family="Helvetica,sans-Serif" font-size="11.00" fill="#0f172a">Pre&#45;LN → 8&#45;head causal attention + RoPE → Residual</text>
<text xml:space="preserve" text-anchor="middle" x="246.96" y="-378.75" font-family="Helvetica,sans-Serif" font-size="11.00" fill="#0f172a">Pre&#45;LN → 4× GELU FFN → Residual</text>
</g>
<!-- pre&#45;&gt;attention -->
<g id="edge3" class="edge">
<title>pre&#45;&gt;attention</title>
<path fill="none" stroke="#475569" stroke-width="1.3" d="M246.96,-451.37C246.96,-451.37 246.96,-432.14 246.96,-432.14"/>
<polygon fill="#475569" stroke="#475569" stroke-width="1.3" points="249.41,-432.14 246.96,-425.14 244.51,-432.14 249.41,-432.14"/>
</g>
<!-- post -->
<g id="node5" class="node">
<title>post</title>
<path fill="#fef3c7" stroke="#f59e0b" stroke-width="1.2" d="M304.17,-338.75C304.17,-338.75 189.75,-338.75 189.75,-338.75 183.75,-338.75 177.75,-332.75 177.75,-326.75 177.75,-326.75 177.75,-312.35 177.75,-312.35 177.75,-306.35 183.75,-300.35 189.75,-300.35 189.75,-300.35 304.17,-300.35 304.17,-300.35 310.17,-300.35 316.17,-306.35 316.17,-312.35 316.17,-312.35 316.17,-326.75 316.17,-326.75 316.17,-332.75 310.17,-338.75 304.17,-338.75"/>
<text xml:space="preserve" text-anchor="middle" x="246.96" y="-321.1" font-family="Helvetica,sans-Serif" font-size="11.00" fill="#0f172a">3 × Causal Gated CNN</text>
<text xml:space="preserve" text-anchor="middle" x="246.96" y="-309.1" font-family="Helvetica,sans-Serif" font-size="11.00" fill="#0f172a">Dilations 8, 16, 32</text>
</g>
<!-- attention&#45;&gt;post -->
<g id="edge4" class="edge">
<title>attention&#45;&gt;post</title>
<path fill="none" stroke="#475569" stroke-width="1.3" d="M246.96,-367.46C246.96,-367.46 246.96,-347.97 246.96,-347.97"/>
<polygon fill="#475569" stroke="#475569" stroke-width="1.3" points="249.41,-347.97 246.96,-340.97 244.51,-347.97 249.41,-347.97"/>
</g>
<!-- mamba -->
<g id="node6" class="node">
<title>mamba</title>
<path fill="#ccfbf1" stroke="#0d9488" stroke-width="1.6" d="M397.17,-271.35C397.17,-271.35 96.75,-271.35 96.75,-271.35 90.75,-271.35 84.75,-265.35 84.75,-259.35 84.75,-259.35 84.75,-228.45 84.75,-228.45 84.75,-222.45 90.75,-216.45 96.75,-216.45 96.75,-216.45 397.17,-216.45 397.17,-216.45 403.17,-216.45 409.17,-222.45 409.17,-228.45 409.17,-228.45 409.17,-259.35 409.17,-259.35 409.17,-265.35 403.17,-271.35 397.17,-271.35"/>
<text xml:space="preserve" text-anchor="middle" x="246.96" y="-253.7" font-family="Helvetica,sans-Serif" font-size="11.00" fill="#0f172a">Portable Mamba Block</text>
<text xml:space="preserve" text-anchor="middle" x="246.96" y="-241.7" font-family="Helvetica,sans-Serif" font-size="11.00" fill="#0f172a">Pre&#45;LN → gated projection → depthwise causal Conv1d</text>
<text xml:space="preserve" text-anchor="middle" x="246.96" y="-227.45" font-family="Helvetica,sans-Serif" font-size="11.00" fill="#0f172a">Selective SSM scan (896 × 16 state) → projection → Residual</text>
</g>
<!-- post&#45;&gt;mamba -->
<g id="edge5" class="edge">
<title>post&#45;&gt;mamba</title>
<path fill="none" stroke="#475569" stroke-width="1.3" d="M246.96,-300.07C246.96,-300.07 246.96,-280.84 246.96,-280.84"/>
<polygon fill="#475569" stroke="#475569" stroke-width="1.3" points="249.41,-280.84 246.96,-273.84 244.51,-280.84 249.41,-280.84"/>
</g>
<!-- norm -->
<g id="node7" class="node">
<title>norm</title>
<path fill="#e2e8f0" stroke="#64748b" stroke-width="1.2" d="M288.05,-180.25C288.05,-180.25 205.88,-180.25 205.88,-180.25 199.88,-180.25 193.88,-174.25 193.88,-168.25 193.88,-168.25 193.88,-156.25 193.88,-156.25 193.88,-150.25 199.88,-144.25 205.88,-144.25 205.88,-144.25 288.05,-144.25 288.05,-144.25 294.05,-144.25 300.05,-150.25 300.05,-156.25 300.05,-156.25 300.05,-168.25 300.05,-168.25 300.05,-174.25 294.05,-180.25 288.05,-180.25"/>
<text xml:space="preserve" text-anchor="middle" x="246.96" y="-157.8" font-family="Helvetica,sans-Serif" font-size="11.00" fill="#0f172a">Final LayerNorm</text>
</g>
<!-- mamba&#45;&gt;norm -->
<g id="edge6" class="edge">
<title>mamba&#45;&gt;norm</title>
<path fill="none" stroke="#475569" stroke-width="1.3" d="M246.96,-215.8C246.96,-215.8 246.96,-189.63 246.96,-189.63"/>
<polygon fill="#475569" stroke="#475569" stroke-width="1.3" points="249.41,-189.63 246.96,-182.63 244.51,-189.63 249.41,-189.63"/>
</g>
<!-- norm&#45;&gt;head -->
<g id="edge7" class="edge">
<title>norm&#45;&gt;head</title>
<path fill="none" stroke="#475569" stroke-width="1.3" d="M246.96,-143.83C246.96,-143.83 246.96,-117.53 246.96,-117.53"/>
<polygon fill="#475569" stroke="#475569" stroke-width="1.3" points="249.41,-117.53 246.96,-110.53 244.51,-117.53 249.41,-117.53"/>
</g>
<!-- logits -->
<g id="node9" class="node">
<title>logits</title>
<path fill="#ffe4e6" stroke="#f43f5e" stroke-width="1.2" d="M288.05,-38.4C288.05,-38.4 205.88,-38.4 205.88,-38.4 199.88,-38.4 193.88,-32.4 193.88,-26.4 193.88,-26.4 193.88,-12 193.88,-12 193.88,-6 199.88,0 205.88,0 205.88,0 288.05,0 288.05,0 294.05,0 300.05,-6 300.05,-12 300.05,-12 300.05,-26.4 300.05,-26.4 300.05,-32.4 294.05,-38.4 288.05,-38.4"/>
<text xml:space="preserve" text-anchor="middle" x="246.96" y="-20.75" font-family="Helvetica,sans-Serif" font-size="11.00" fill="#0f172a">Next&#45;token logits</text>
<text xml:space="preserve" text-anchor="middle" x="246.96" y="-8.75" font-family="Helvetica,sans-Serif" font-size="11.00" fill="#0f172a">[B, T, 8,192]</text>
</g>
<!-- head&#45;&gt;logits -->
<g id="edge8" class="edge">
<title>head&#45;&gt;logits</title>
<path fill="none" stroke="#475569" stroke-width="1.3" d="M246.96,-67.17C246.96,-67.17 246.96,-47.77 246.96,-47.77"/>
<polygon fill="#475569" stroke="#475569" stroke-width="1.3" points="249.41,-47.77 246.96,-40.77 244.51,-47.77 249.41,-47.77"/>
</g>
<!-- summary -->
<g id="node10" class="node">
<title>summary</title>
<polygon fill="#f1f5f9" stroke="#94a3b8" stroke-width="1.2" points="169.92,-187.45 0,-187.45 0,-137.05 175.92,-137.05 175.92,-181.45 169.92,-187.45"/>
<polyline fill="none" stroke="#94a3b8" stroke-width="1.2" points="169.92,-187.45 169.92,-181.45"/>
<polyline fill="none" stroke="#94a3b8" stroke-width="1.2" points="175.92,-181.45 169.92,-181.45"/>
<text xml:space="preserve" text-anchor="middle" x="87.96" y="-169.8" font-family="Helvetica,sans-Serif" font-size="11.00" fill="#0f172a">6,027,648 parameters</text>
<text xml:space="preserve" text-anchor="middle" x="87.96" y="-157.8" font-family="Helvetica,sans-Serif" font-size="11.00" fill="#0f172a">One quadratic attention stage</text>
<text xml:space="preserve" text-anchor="middle" x="87.96" y="-145.8" font-family="Helvetica,sans-Serif" font-size="11.00" fill="#0f172a">One linear selective&#45;state stage</text>
</g>
<!-- summary&#45;&gt;norm -->
</g>
</svg>
