<?xml version="1.0" encoding="UTF-8" standalone="no"?>
<!DOCTYPE svg PUBLIC "-//W3C//DTD SVG 1.1//EN"
 "http://www.w3.org/Graphics/SVG/1.1/DTD/svg11.dtd">
<!-- Generated by graphviz version 15.1.0 (20260618.0150)
 -->
<!-- Title: KiwiLM_Transformer_Baseline Pages: 1 -->
<svg width="547pt" height="729pt"
 viewBox="0.00 0.00 547.00 729.00" xmlns="http://www.w3.org/2000/svg" xmlns:xlink="http://www.w3.org/1999/xlink">
<g id="graph0" class="graph" transform="scale(1 1) rotate(0) translate(18 711.35)">
<title>KiwiLM_Transformer_Baseline</title>
<polygon fill="#ffffff" stroke="none" points="-18,18 -18,-711.35 529.17,-711.35 529.17,18 -18,18"/>
<text xml:space="preserve" text-anchor="middle" x="255.59" y="-672.25" font-family="Helvetica,sans-Serif" font-size="18.00">KiwiLM GPT&#45;Style Transformer Baseline</text>
<g id="clust1" class="cluster">
<title>cluster_transformer</title>
<path fill="#ffffff" stroke="#8b5cf6" stroke-dasharray="5,2" d="M140.21,-211.45C140.21,-211.45 431.21,-211.45 431.21,-211.45 437.21,-211.45 443.21,-217.45 443.21,-223.45 443.21,-223.45 443.21,-542.8 443.21,-542.8 443.21,-548.8 437.21,-554.8 431.21,-554.8 431.21,-554.8 140.21,-554.8 140.21,-554.8 134.21,-554.8 128.21,-548.8 128.21,-542.8 128.21,-542.8 128.21,-223.45 128.21,-223.45 128.21,-217.45 134.21,-211.45 140.21,-211.45"/>
<text xml:space="preserve" text-anchor="middle" x="285.71" y="-533.7" font-family="Helvetica,sans-Serif" font-size="18.00" fill="#6d28d9">4 × Decoder&#45;Only Transformer Blocks</text>
</g>
<!-- input -->
<g id="node1" class="node">
<title>input</title>
<path fill="#dbeafe" stroke="#3b82f6" stroke-width="1.2" d="M325.55,-666.6C325.55,-666.6 244.88,-666.6 244.88,-666.6 238.88,-666.6 232.88,-660.6 232.88,-654.6 232.88,-654.6 232.88,-640.2 232.88,-640.2 232.88,-634.2 238.88,-628.2 244.88,-628.2 244.88,-628.2 325.55,-628.2 325.55,-628.2 331.55,-628.2 337.55,-634.2 337.55,-640.2 337.55,-640.2 337.55,-654.6 337.55,-654.6 337.55,-660.6 331.55,-666.6 325.55,-666.6"/>
<text xml:space="preserve" text-anchor="middle" x="285.21" y="-648.95" font-family="Helvetica,sans-Serif" font-size="11.00" fill="#0f172a">Input token IDs</text>
<text xml:space="preserve" text-anchor="middle" x="285.21" y="-636.95" font-family="Helvetica,sans-Serif" font-size="11.00" fill="#0f172a">[B, T] &#160;• &#160;T ≤ 256</text>
</g>
<!-- embedding -->
<g id="node2" class="node">
<title>embedding</title>
<path fill="#dcfce7" stroke="#22c55e" stroke-width="1.2" d="M329.3,-601.2C329.3,-601.2 241.13,-601.2 241.13,-601.2 235.13,-601.2 229.13,-595.2 229.13,-589.2 229.13,-589.2 229.13,-574.8 229.13,-574.8 229.13,-568.8 235.13,-562.8 241.13,-562.8 241.13,-562.8 329.3,-562.8 329.3,-562.8 335.3,-562.8 341.3,-568.8 341.3,-574.8 341.3,-574.8 341.3,-589.2 341.3,-589.2 341.3,-595.2 335.3,-601.2 329.3,-601.2"/>
<text xml:space="preserve" text-anchor="middle" x="285.21" y="-583.55" font-family="Helvetica,sans-Serif" font-size="11.00" fill="#0f172a">Token Embedding</text>
<text xml:space="preserve" text-anchor="middle" x="285.21" y="-571.55" font-family="Helvetica,sans-Serif" font-size="11.00" fill="#0f172a">8,192 × 256</text>
</g>
<!-- input&#45;&gt;embedding -->
<g id="edge4" class="edge">
<title>input&#45;&gt;embedding</title>
<path fill="none" stroke="#475569" stroke-width="1.3" d="M285.21,-627.78C285.21,-627.78 285.21,-610.58 285.21,-610.58"/>
<polygon fill="#475569" stroke="#475569" stroke-width="1.3" points="287.66,-610.58 285.21,-603.58 282.76,-610.58 287.66,-610.58"/>
</g>
<!-- block1 -->
<g id="node3" class="node">
<title>block1</title>
<path fill="#ede9fe" stroke="#8b5cf6" stroke-width="1.2" d="M418.92,-520.05C418.92,-520.05 151.5,-520.05 151.5,-520.05 145.5,-520.05 139.5,-514.05 139.5,-508.05 139.5,-508.05 139.5,-477.15 139.5,-477.15 139.5,-471.15 145.5,-465.15 151.5,-465.15 151.5,-465.15 418.92,-465.15 418.92,-465.15 424.92,-465.15 430.92,-471.15 430.92,-477.15 430.92,-477.15 430.92,-508.05 430.92,-508.05 430.92,-514.05 424.92,-520.05 418.92,-520.05"/>
<text xml:space="preserve" text-anchor="middle" x="285.21" y="-502.4" font-family="Helvetica,sans-Serif" font-size="11.00" fill="#0f172a">Block 1</text>
<text xml:space="preserve" text-anchor="middle" x="285.21" y="-490.4" font-family="Helvetica,sans-Serif" font-size="11.00" fill="#0f172a">Pre&#45;LN → 8&#45;head causal attention + RoPE → Residual</text>
<text xml:space="preserve" text-anchor="middle" x="285.21" y="-476.15" font-family="Helvetica,sans-Serif" font-size="11.00" fill="#0f172a">Pre&#45;LN → MLP 256→1024→256 + GELU → Residual</text>
</g>
<!-- embedding&#45;&gt;block1 -->
<g id="edge5" class="edge">
<title>embedding&#45;&gt;block1</title>
<path fill="none" stroke="#475569" stroke-width="1.3" d="M285.21,-562.6C285.21,-562.6 285.21,-529.41 285.21,-529.41"/>
<polygon fill="#475569" stroke="#475569" stroke-width="1.3" points="287.66,-529.41 285.21,-522.41 282.76,-529.41 287.66,-529.41"/>
</g>
<!-- lm_head -->
<g id="node8" class="node">
<title>lm_head</title>
<path fill="#f3e8ff" stroke="#a855f7" stroke-width="1.2" d="M353.3,-106.05C353.3,-106.05 217.13,-106.05 217.13,-106.05 211.13,-106.05 205.13,-100.05 205.13,-94.05 205.13,-94.05 205.13,-77.4 205.13,-77.4 205.13,-71.4 211.13,-65.4 217.13,-65.4 217.13,-65.4 353.3,-65.4 353.3,-65.4 359.3,-65.4 365.3,-71.4 365.3,-77.4 365.3,-77.4 365.3,-94.05 365.3,-94.05 365.3,-100.05 359.3,-106.05 353.3,-106.05"/>
<text xml:space="preserve" text-anchor="middle" x="285.21" y="-88.4" font-family="Helvetica,sans-Serif" font-size="11.00" fill="#0f172a">Tied Language&#45;Model Head</text>
<text xml:space="preserve" text-anchor="middle" x="285.21" y="-76.4" font-family="Helvetica,sans-Serif" font-size="11.00" fill="#0f172a">Linear 256 → 8,192 + bias</text>
</g>
<!-- embedding&#45;&gt;lm_head -->
<g id="edge9" class="edge">
<title>embedding&#45;&gt;lm_head</title>
<path fill="none" stroke="#9333ea" stroke-width="1.3" stroke-dasharray="5,2" d="M341.55,-582C388.91,-582 448.92,-582 448.92,-582 448.92,-582 448.92,-86 448.92,-86 448.92,-86 374.59,-86 374.59,-86"/>
<polygon fill="#9333ea" stroke="#9333ea" stroke-width="1.3" points="374.59,-83.55 367.59,-86 374.59,-88.45 374.59,-83.55"/>
<text xml:space="preserve" text-anchor="middle" x="480.05" y="-351.72" font-family="Helvetica,sans-Serif" font-size="9.00" fill="#7e22ce">shared weights</text>
</g>
<!-- block2 -->
<g id="node4" class="node">
<title>block2</title>
<path fill="#ede9fe" stroke="#8b5cf6" stroke-width="1.2" d="M418.92,-438.15C418.92,-438.15 151.5,-438.15 151.5,-438.15 145.5,-438.15 139.5,-432.15 139.5,-426.15 139.5,-426.15 139.5,-395.25 139.5,-395.25 139.5,-389.25 145.5,-383.25 151.5,-383.25 151.5,-383.25 418.92,-383.25 418.92,-383.25 424.92,-383.25 430.92,-389.25 430.92,-395.25 430.92,-395.25 430.92,-426.15 430.92,-426.15 430.92,-432.15 424.92,-438.15 418.92,-438.15"/>
<text xml:space="preserve" text-anchor="middle" x="285.21" y="-420.5" font-family="Helvetica,sans-Serif" font-size="11.00" fill="#0f172a">Block 2</text>
<text xml:space="preserve" text-anchor="middle" x="285.21" y="-408.5" font-family="Helvetica,sans-Serif" font-size="11.00" fill="#0f172a">Pre&#45;LN → 8&#45;head causal attention + RoPE → Residual</text>
<text xml:space="preserve" text-anchor="middle" x="285.21" y="-394.25" font-family="Helvetica,sans-Serif" font-size="11.00" fill="#0f172a">Pre&#45;LN → MLP 256→1024→256 + GELU → Residual</text>
</g>
<!-- block1&#45;&gt;block2 -->
<g id="edge1" class="edge">
<title>block1&#45;&gt;block2</title>
<path fill="none" stroke="#475569" stroke-width="1.3" d="M285.21,-464.87C285.21,-464.87 285.21,-447.65 285.21,-447.65"/>
<polygon fill="#475569" stroke="#475569" stroke-width="1.3" points="287.66,-447.65 285.21,-440.65 282.76,-447.65 287.66,-447.65"/>
</g>
<!-- block3 -->
<g id="node5" class="node">
<title>block3</title>
<path fill="#ede9fe" stroke="#8b5cf6" stroke-width="1.2" d="M418.92,-356.25C418.92,-356.25 151.5,-356.25 151.5,-356.25 145.5,-356.25 139.5,-350.25 139.5,-344.25 139.5,-344.25 139.5,-313.35 139.5,-313.35 139.5,-307.35 145.5,-301.35 151.5,-301.35 151.5,-301.35 418.92,-301.35 418.92,-301.35 424.92,-301.35 430.92,-307.35 430.92,-313.35 430.92,-313.35 430.92,-344.25 430.92,-344.25 430.92,-350.25 424.92,-356.25 418.92,-356.25"/>
<text xml:space="preserve" text-anchor="middle" x="285.21" y="-338.6" font-family="Helvetica,sans-Serif" font-size="11.00" fill="#0f172a">Block 3</text>
<text xml:space="preserve" text-anchor="middle" x="285.21" y="-326.6" font-family="Helvetica,sans-Serif" font-size="11.00" fill="#0f172a">Pre&#45;LN → 8&#45;head causal attention + RoPE → Residual</text>
<text xml:space="preserve" text-anchor="middle" x="285.21" y="-312.35" font-family="Helvetica,sans-Serif" font-size="11.00" fill="#0f172a">Pre&#45;LN → MLP 256→1024→256 + GELU → Residual</text>
</g>
<!-- block2&#45;&gt;block3 -->
<g id="edge2" class="edge">
<title>block2&#45;&gt;block3</title>
<path fill="none" stroke="#475569" stroke-width="1.3" d="M285.21,-382.97C285.21,-382.97 285.21,-365.75 285.21,-365.75"/>
<polygon fill="#475569" stroke="#475569" stroke-width="1.3" points="287.66,-365.75 285.21,-358.75 282.76,-365.75 287.66,-365.75"/>
</g>
<!-- block4 -->
<g id="node6" class="node">
<title>block4</title>
<path fill="#ede9fe" stroke="#8b5cf6" stroke-width="1.2" d="M418.92,-274.35C418.92,-274.35 151.5,-274.35 151.5,-274.35 145.5,-274.35 139.5,-268.35 139.5,-262.35 139.5,-262.35 139.5,-231.45 139.5,-231.45 139.5,-225.45 145.5,-219.45 151.5,-219.45 151.5,-219.45 418.92,-219.45 418.92,-219.45 424.92,-219.45 430.92,-225.45 430.92,-231.45 430.92,-231.45 430.92,-262.35 430.92,-262.35 430.92,-268.35 424.92,-274.35 418.92,-274.35"/>
<text xml:space="preserve" text-anchor="middle" x="285.21" y="-256.7" font-family="Helvetica,sans-Serif" font-size="11.00" fill="#0f172a">Block 4</text>
<text xml:space="preserve" text-anchor="middle" x="285.21" y="-244.7" font-family="Helvetica,sans-Serif" font-size="11.00" fill="#0f172a">Pre&#45;LN → 8&#45;head causal attention + RoPE → Residual</text>
<text xml:space="preserve" text-anchor="middle" x="285.21" y="-230.45" font-family="Helvetica,sans-Serif" font-size="11.00" fill="#0f172a">Pre&#45;LN → MLP 256→1024→256 + GELU → Residual</text>
</g>
<!-- block3&#45;&gt;block4 -->
<g id="edge3" class="edge">
<title>block3&#45;&gt;block4</title>
<path fill="none" stroke="#475569" stroke-width="1.3" d="M285.21,-301.07C285.21,-301.07 285.21,-283.85 285.21,-283.85"/>
<polygon fill="#475569" stroke="#475569" stroke-width="1.3" points="287.66,-283.85 285.21,-276.85 282.76,-283.85 287.66,-283.85"/>
</g>
<!-- final_norm -->
<g id="node7" class="node">
<title>final_norm</title>
<path fill="#e2e8f0" stroke="#64748b" stroke-width="1.2" d="M326.3,-181.95C326.3,-181.95 244.13,-181.95 244.13,-181.95 238.13,-181.95 232.13,-175.95 232.13,-169.95 232.13,-169.95 232.13,-155.55 232.13,-155.55 232.13,-149.55 238.13,-143.55 244.13,-143.55 244.13,-143.55 326.3,-143.55 326.3,-143.55 332.3,-143.55 338.3,-149.55 338.3,-155.55 338.3,-155.55 338.3,-169.95 338.3,-169.95 338.3,-175.95 332.3,-181.95 326.3,-181.95"/>
<text xml:space="preserve" text-anchor="middle" x="285.21" y="-164.3" font-family="Helvetica,sans-Serif" font-size="11.00" fill="#0f172a">Final LayerNorm</text>
<text xml:space="preserve" text-anchor="middle" x="285.21" y="-152.3" font-family="Helvetica,sans-Serif" font-size="11.00" fill="#0f172a">256 channels</text>
</g>
<!-- block4&#45;&gt;final_norm -->
<g id="edge6" class="edge">
<title>block4&#45;&gt;final_norm</title>
<path fill="none" stroke="#475569" stroke-width="1.3" d="M285.21,-218.88C285.21,-218.88 285.21,-191.38 285.21,-191.38"/>
<polygon fill="#475569" stroke="#475569" stroke-width="1.3" points="287.66,-191.38 285.21,-184.38 282.76,-191.38 287.66,-191.38"/>
</g>
<!-- final_norm&#45;&gt;lm_head -->
<g id="edge7" class="edge">
<title>final_norm&#45;&gt;lm_head</title>
<path fill="none" stroke="#475569" stroke-width="1.3" d="M285.21,-143.31C285.21,-143.31 285.21,-115.47 285.21,-115.47"/>
<polygon fill="#475569" stroke="#475569" stroke-width="1.3" points="287.66,-115.47 285.21,-108.47 282.76,-115.47 287.66,-115.47"/>
</g>
<!-- logits -->
<g id="node9" class="node">
<title>logits</title>
<path fill="#ffe4e6" stroke="#f43f5e" stroke-width="1.2" d="M326.3,-38.4C326.3,-38.4 244.13,-38.4 244.13,-38.4 238.13,-38.4 232.13,-32.4 232.13,-26.4 232.13,-26.4 232.13,-12 232.13,-12 232.13,-6 238.13,0 244.13,0 244.13,0 326.3,0 326.3,0 332.3,0 338.3,-6 338.3,-12 338.3,-12 338.3,-26.4 338.3,-26.4 338.3,-32.4 332.3,-38.4 326.3,-38.4"/>
<text xml:space="preserve" text-anchor="middle" x="285.21" y="-20.75" font-family="Helvetica,sans-Serif" font-size="11.00" fill="#0f172a">Next&#45;token logits</text>
<text xml:space="preserve" text-anchor="middle" x="285.21" y="-8.75" font-family="Helvetica,sans-Serif" font-size="11.00" fill="#0f172a">[B, T, 8,192]</text>
</g>
<!-- lm_head&#45;&gt;logits -->
<g id="edge8" class="edge">
<title>lm_head&#45;&gt;logits</title>
<path fill="none" stroke="#475569" stroke-width="1.3" d="M285.21,-65.04C285.21,-65.04 285.21,-47.7 285.21,-47.7"/>
<polygon fill="#475569" stroke="#475569" stroke-width="1.3" points="287.66,-47.7 285.21,-40.7 282.76,-47.7 287.66,-47.7"/>
</g>
<!-- summary -->
<g id="node10" class="node">
<title>summary</title>
<polygon fill="#f1f5f9" stroke="#94a3b8" stroke-width="1.2" points="210.42,-192.45 0,-192.45 0,-133.05 216.42,-133.05 216.42,-186.45 210.42,-192.45"/>
<polyline fill="none" stroke="#94a3b8" stroke-width="1.2" points="210.42,-192.45 210.42,-186.45"/>
<polyline fill="none" stroke="#94a3b8" stroke-width="1.2" points="216.42,-186.45 210.42,-186.45"/>
<text xml:space="preserve" text-anchor="middle" x="108.21" y="-175.75" font-family="Helvetica,sans-Serif" font-size="10.00" fill="#0f172a">Default configuration</text>
<text xml:space="preserve" text-anchor="middle" x="108.21" y="-164.5" font-family="Helvetica,sans-Serif" font-size="10.00" fill="#0f172a">5,264,896 parameters</text>
<text xml:space="preserve" text-anchor="middle" x="108.21" y="-153.25" font-family="Helvetica,sans-Serif" font-size="10.00" fill="#0f172a">Controlled GPT&#45;style baseline</text>
<text xml:space="preserve" text-anchor="middle" x="108.21" y="-142" font-family="Helvetica,sans-Serif" font-size="10.00" fill="#0f172a">RoPE and SDPA shared with hybrid models</text>
</g>
<!-- summary&#45;&gt;final_norm -->
</g>
</svg>
